# xmcd
#
# Track frame offsets:
#       150
#       15357
#       33498
#       48127
#       59161
#       74731
#       82197
#
# Disc length: 1292 seconds
#
# Revision: 0
# Processed by: cddbd v1.5.2PL0 Copyright (c) Steve Scherf et al.
# Submitted via: WaveLab 6.11
#
DISCID=5f050a07
DTITLE=A House, A Home - Stories Of The Frontier
DYEAR=1900
DGENRE=
TTITLE0=Different Shades Of Black And White
TTITLE1=Blue
TTITLE2=Recovery
TTITLE3=The Good Looking
TTITLE4=Your Face, The Screen
TTITLE5=Birds
TTITLE6=Stories Of The Frontier
EXTD=
EXTT0=
EXTT1=
EXTT2=
EXTT3=
EXTT4=
EXTT5=
EXTT6=
PLAYORDER=
